Genre:Comedy
 Language:English
  
http://www.imdb.com/title/tt1477837/

 Source:BluRay.720p.DTS.x264-CHD Thanks!
 

Format : MPEG-4
 Format profile : Base Media
 Codec ID : isom
 File size : 2.06 GiB
 Duration : 1h 26mn
 Overall bit rate : 3 384 Kbps
 
Video
 ID : 1
 Format : AVC
 Format/Info : Advanced Video Codec
 Format profile : High@L4.1
 Format settings, CABAC : Yes
 Format settings, ReFrames : 3 frames
 Codec ID : avc1
 Codec ID/Info : Advanced Video Coding
 Duration : 1h 26mn
 Bit rate mode : Variable
 Bit rate : 3 000 Kbps
 Maximum bit rate : 11.5 Mbps
 Width : 1 280 pixels
 Height : 688 pixels
 Display aspect ratio : 1.860
 Frame rate mode : Constant
 Frame rate : 23.976 fps
 Color space : YUV
 Chroma subsampling : 4:2:0
 Bit depth : 8 bits
 Scan type : Progressive
 Bits/(Pixel*Frame) : 0.142
 Stream size : 1.79 GiB (87%)
 Writing library : x264
 
Audio
 ID : 2
 Format : AAC
 Format/Info : Advanced Audio Codec
 Format version : Version 4
 Format profile : LC
 Format settings, SBR : No
 Codec ID : 40
 Duration : 1h 26mn
 Bit rate mode : Variable
 Bit rate : 429 Kbps
 Maximum bit rate : 539 Kbps
 Channel(s) : 6 channels
 Channel positions : Front: L C R, Side: L R, LFE
 Sampling rate : 48.0 KHz
 Stream size : 267 MiB (13%)
 

Plot:
 Tim Lippe has no idea what he's in for when he's sent to Cedar Rapids, Iowa to represent his company at an annual insurance convention, where he soon finds himself under the "guidance" of three convention veterans.
  
http://www.pix2links.com/images/29594507660238651468.png
 
http://www.pix2links.com/images/10357788901082522216.png
 
http://www.pix2links.com/images/16567283527311520194.png
 
http://www.pix2links.com/images/40734682379378430756.png
 
http://www.pix2links.com/images/41313865812851903707.png
 
http://www.pix2links.com/images/23722475286586551865.png
 
http://www.pix2links.com/images/21549940791392055503.png